<svg xmlns="http://www.w3.org/2000/svg" xmlns:xlink="http://www.w3.org/1999/xlink" viewBox="0 0 105 23.88"><defs><style>.cls-1{fill:none;}.cls-2{clip-path:url(#clip-path);}.cls-3{fill:#676767;}.cls-4{fill:#231f20;}.cls-5{fill:#017dad;}</style><clipPath id="clip-path" transform="translate(0 0)"><rect class="cls-1" width="105" height="23.88"/></clipPath></defs><title>DM Logo</title><g id="Layer_2" data-name="Layer 2"><g id="Layer_1-2" data-name="Layer 1"><g id="DM_Logo" data-name="DM Logo"><g class="cls-2"><polygon class="cls-3" points="62.52 20.03 64.51 20.03 64.51 20.32 62.83 20.32 62.83 21.31 64.33 21.31 64.33 21.6 62.83 21.6 62.83 22.8 62.52 22.8 62.52 20.03"/><g class="cls-2"><path class="cls-3" d="M65.25,21.43h0A1.41,1.41,0,0,1,66.67,20a1.39,1.39,0,0,1,1.41,1.43h0a1.42,1.42,0,1,1-2.83,0m2.51,0h0a1.11,1.11,0,0,0-1.1-1.15,1.09,1.09,0,0,0-1.08,1.14h0a1.1,1.1,0,0,0,1.09,1.14,1.08,1.08,0,0,0,1.09-1.13" transform="translate(0 0)"/><path class="cls-3" d="M69.07,20h1.19a1.09,1.09,0,0,1,.79.28.78.78,0,0,1,.21.55h0a.82.82,0,0,1-.75.81l.85,1.14H71l-.81-1.08h-.79v1.08h-.31Zm1.16,1.42c.42,0,.71-.22.71-.57h0c0-.34-.26-.55-.71-.55h-.85v1.13Z" transform="translate(0 0)"/><path class="cls-3" d="M74.79,20h.29l1.26,2.8H76l-.33-.74H74.17l-.33.74h-.32Zm.77,1.78-.63-1.41-.64,1.41Z" transform="translate(0 0)"/><path class="cls-3" d="M77.21,20h1c.62,0,1,.33,1,.88h0c0,.6-.5.91-1.09.91h-.68v1h-.31Zm1,1.51c.46,0,.76-.24.76-.61h0c0-.39-.3-.6-.75-.6h-.7v1.22Z" transform="translate(0 0)"/><path class="cls-3" d="M80.18,20h1c.62,0,1,.33,1,.88h0c0,.6-.5.91-1.09.91h-.67v1h-.31Zm1,1.51c.46,0,.77-.24.77-.61h0c0-.39-.3-.6-.75-.6h-.7v1.22Z" transform="translate(0 0)"/><path class="cls-3" d="M83.14,20h1.2a1,1,0,0,1,.78.28.75.75,0,0,1,.22.55h0a.82.82,0,0,1-.75.81l.85,1.14h-.39l-.8-1.08h-.79v1.08h-.32Zm1.17,1.42c.41,0,.71-.22.71-.57h0c0-.34-.26-.55-.71-.55h-.85v1.13Z" transform="translate(0 0)"/><path class="cls-3" d="M87.36,20h.29l1.26,2.8h-.33l-.33-.74H86.74l-.33.74h-.32Zm.77,1.78-.63-1.41-.64,1.41Z" transform="translate(0 0)"/><path class="cls-3" d="M91.07,22.4l.19-.23a1.33,1.33,0,0,0,.95.39c.38,0,.62-.19.62-.47h0c0-.25-.14-.4-.72-.52s-.93-.35-.93-.8h0a.82.82,0,0,1,.91-.76,1.48,1.48,0,0,1,1,.34l-.19.24a1.19,1.19,0,0,0-.8-.3c-.36,0-.59.2-.59.45h0c0,.26.15.41.76.54s.9.36.9.78h0c0,.48-.4.79-1,.79a1.6,1.6,0,0,1-1.13-.45" transform="translate(0 0)"/><polygon class="cls-3" points="94.11 20.03 96.11 20.03 96.11 20.32 94.42 20.32 94.42 21.26 95.93 21.26 95.93 21.55 94.42 21.55 94.42 22.52 96.13 22.52 96.13 22.8 94.11 22.8 94.11 20.03"/><polygon class="cls-3" points="89.81 20.03 90.13 20.03 90.13 21.26 90.13 21.55 90.13 22.8 89.81 22.8 89.81 20.03"/><path class="cls-3" d="M97.08,20h1.2a1,1,0,0,1,.78.28.75.75,0,0,1,.22.55h0a.82.82,0,0,1-.75.81l.85,1.14H99l-.8-1.08H97.4v1.08h-.32Zm1.17,1.42c.41,0,.71-.22.71-.57h0c0-.34-.26-.55-.71-.55H97.4v1.13Z" transform="translate(0 0)"/><path class="cls-3" d="M100.09,22.4l.19-.23a1.33,1.33,0,0,0,1,.39c.37,0,.62-.19.62-.47h0c0-.25-.14-.4-.72-.52s-.93-.35-.93-.8h0a.82.82,0,0,1,.91-.76,1.47,1.47,0,0,1,1,.34l-.18.24a1.21,1.21,0,0,0-.8-.3c-.36,0-.59.2-.59.45h0c0,.26.14.41.75.54s.91.36.91.78h0c0,.48-.4.79-1,.79a1.6,1.6,0,0,1-1.13-.45" transform="translate(0 0)"/><path class="cls-4" d="M30.1,8.07h3.38a4.85,4.85,0,0,1,5.17,4.84v0a4.88,4.88,0,0,1-5.17,4.87H30.1Zm1.1,1v7.69h2.28a3.76,3.76,0,0,0,4-3.82v0a3.78,3.78,0,0,0-4-3.84Z" transform="translate(0 0)"/><path class="cls-4" d="M39.41,15.71v0c0-1.52,1.25-2.32,3.07-2.32a7.66,7.66,0,0,1,2.21.3v-.25c0-1.29-.79-2-2.14-2a4.94,4.94,0,0,0-2.18.53l-.32-.87a5.81,5.81,0,0,1,2.61-.6,3.14,3.14,0,0,1,2.32.79,2.83,2.83,0,0,1,.74,2.1V17.8h-1V16.71A3.13,3.13,0,0,1,42.09,18a2.42,2.42,0,0,1-2.68-2.24m5.29-.55v-.7a7.53,7.53,0,0,0-2.11-.3c-1.35,0-2.1.58-2.1,1.48v0c0,.9.84,1.43,1.81,1.43a2.16,2.16,0,0,0,2.4-1.94" transform="translate(0 0)"/><path class="cls-4" d="M47.47,15.89V11.56h-1v-.94h1V8.45h1.07v2.17h2.28v.94H48.54v4.2A1.06,1.06,0,0,0,49.75,17a2.27,2.27,0,0,0,1-.25v.92a2.76,2.76,0,0,1-1.29.3,1.83,1.83,0,0,1-2-2" transform="translate(0 0)"/><path class="cls-4" d="M51.61,15.71v0c0-1.52,1.25-2.32,3.07-2.32a7.66,7.66,0,0,1,2.21.3v-.25c0-1.29-.79-2-2.14-2a4.91,4.91,0,0,0-2.18.53l-.32-.87a5.81,5.81,0,0,1,2.61-.6,3.15,3.15,0,0,1,2.32.79,2.83,2.83,0,0,1,.74,2.1V17.8h-1V16.71A3.14,3.14,0,0,1,54.29,18a2.42,2.42,0,0,1-2.68-2.24m5.29-.55v-.7a7.65,7.65,0,0,0-2.11-.3c-1.35,0-2.1.58-2.1,1.48v0c0,.9.84,1.43,1.81,1.43a2.16,2.16,0,0,0,2.4-1.94" transform="translate(0 0)"/><polygon class="cls-4" points="60.1 8.07 61.21 8.07 64.75 13.38 68.29 8.07 69.41 8.07 69.41 17.8 68.31 17.8 68.31 9.92 64.77 15.13 64.71 15.13 61.17 9.94 61.17 17.8 60.1 17.8 60.1 8.07"/><path class="cls-4" d="M70.6,15.71v0c0-1.52,1.25-2.32,3.07-2.32a7.66,7.66,0,0,1,2.21.3v-.25c0-1.29-.79-2-2.14-2a4.94,4.94,0,0,0-2.18.53l-.32-.87a5.81,5.81,0,0,1,2.61-.6,3.14,3.14,0,0,1,2.32.79,2.83,2.83,0,0,1,.74,2.1V17.8h-1V16.71A3.13,3.13,0,0,1,73.28,18a2.42,2.42,0,0,1-2.68-2.24m5.29-.55v-.7a7.53,7.53,0,0,0-2.11-.3c-1.35,0-2.1.58-2.1,1.48v0c0,.9.84,1.43,1.81,1.43a2.16,2.16,0,0,0,2.4-1.94" transform="translate(0 0)"/><path class="cls-4" d="M78,16.88l.54-.76a4.22,4.22,0,0,0,2.49.91c.86,0,1.49-.44,1.49-1.14v0c0-.73-.85-1-1.79-1.27-1.13-.32-2.38-.71-2.38-2v0a2.18,2.18,0,0,1,2.45-2.06,5,5,0,0,1,2.58.79l-.49.81a4.05,4.05,0,0,0-2.12-.7c-.85,0-1.39.45-1.39,1v0c0,.68.89.95,1.85,1.24s2.3.76,2.3,2.06v0A2.26,2.26,0,0,1,81,17.94a5,5,0,0,1-3-1.06" transform="translate(0 0)"/><path class="cls-4" d="M85.78,15.89V11.56h-1v-.94h1V8.45h1.07v2.17h2.28v.94H86.85v4.2A1.06,1.06,0,0,0,88.06,17a2.31,2.31,0,0,0,1-.25v.92a2.77,2.77,0,0,1-1.3.3,1.83,1.83,0,0,1-2-2" transform="translate(0 0)"/><path class="cls-4" d="M89.81,14.23v0a3.55,3.55,0,0,1,3.45-3.74c2.12,0,3.35,1.7,3.35,3.79a1.94,1.94,0,0,1,0,.35H90.9A2.5,2.5,0,0,0,93.43,17a3,3,0,0,0,2.26-1l.67.6a3.73,3.73,0,0,1-3,1.34,3.57,3.57,0,0,1-3.59-3.73m5.71-.42a2.36,2.36,0,0,0-2.29-2.44,2.47,2.47,0,0,0-2.33,2.44Z" transform="translate(0 0)"/><path class="cls-4" d="M98.21,10.62h1.06v1.87a3.08,3.08,0,0,1,2.94-2v1.15h-.09c-1.57,0-2.85,1.13-2.85,3.3V17.8H98.21Z" transform="translate(0 0)"/><path class="cls-4" d="M104.29,7.75A1.42,1.42,0,0,1,105,9a1.39,1.39,0,0,1-.19.72,1.47,1.47,0,0,1-.52.53,1.48,1.48,0,0,1-1.45,0,1.41,1.41,0,0,1-.51-.52,1.44,1.44,0,0,1,0-1.43,1.47,1.47,0,0,1,.52-.53,1.4,1.4,0,0,1,1.44,0m-.1,2.29a1.27,1.27,0,0,0,.44-.45,1.16,1.16,0,0,0,.16-.61,1.18,1.18,0,0,0-.16-.61,1.24,1.24,0,0,0-.44-.44,1.19,1.19,0,0,0-.62-.16,1.11,1.11,0,0,0-.62.17,1.24,1.24,0,0,0-.44.44,1.19,1.19,0,0,0-.17.61,1.26,1.26,0,0,0,.16.61A1.19,1.19,0,0,0,103,10a1.17,1.17,0,0,0,.61.17,1.24,1.24,0,0,0,.63-.17m-.09-1a.45.45,0,0,1-.24.18l.35.49H104l-.29-.46h-.45v.45H103V8.22h.57a.61.61,0,0,1,.43.13.45.45,0,0,1,.15.36.56.56,0,0,1-.08.3m-.5,0a.44.44,0,0,0,.29-.09.34.34,0,0,0,.1-.25.29.29,0,0,0-.1-.23.44.44,0,0,0-.29-.09h-.37v.66Z" transform="translate(0 0)"/></g><g class="cls-2"><path class="cls-5" d="M11.94,0A11.94,11.94,0,1,0,23.88,11.94,11.95,11.95,0,0,0,11.94,0M21.8,12l-1.72,0L16.23,7.75,11.87,12l-1.74,0c0-.07,6.12-6.24,6.12-6.24ZM6.88,18.76H5.12V12H2.85l1-1L5.12,9.75v-5H6.88V8l4.38-4.36L14.15,6.8l-.92.93L11.44,5.78,6.88,10.32Zm1.15-1,1.79-2-1.74-2H9.67l1.74,2.06-1.79,2Zm3.16,0,1.79-2-1.74-2h1.59l1.74,2.06-1.79,2Zm3.17,0,1.79-2-1.74-2H16l1.74,2.06-1.79,2Zm4.75,0H17.52l1.79-2-1.74-2h1.59L20.9,15.7Z" transform="translate(0 0)"/></g></g></g></g></g></svg>